<svg xmlns="http://www.w3.org/2000/svg" viewBox="0 0 48 48">
  <path fill="#4285F4" d="M24 10v8.4h11.8c-.6 3-2.3 5.6-4.8 7.2l7.8 6c4.5-4.2 7.2-10.4 7.2-17.7 0-1.6-.2-3.3-.5-4.9H24z"/>
  <path fill="#34A853" d="M10.7 28.2c-.6-1.7-1-3.5-1-5.4 0-1.9.4-3.7 1-5.4l-7.8-6C.7 14.5 0 18.1 0 22c0 3.9.7 7.5 2 10.8l8.7-4.6z"/>
  <path fill="#FBBC05" d="M24 38.3c6.4 0 11.8-2.1 15.7-5.7l-7.8-6c-2.2 1.5-4.9 2.3-7.9 2.3-6.1 0-11.2-4.1-13-9.7l-7.8 6C5.4 33.5 13.9 38.3 24 38.3z"/>
  <path fill="#EA4335" d="M24 10c-3.3 0-6.3 1.1-8.7 3.3l7.8 6c2.1-1.4 4.6-2.2 7.4-2.2 6.1 0 11.2 4.1 13 9.7l7.8-6C47.9 12.5 39.4 10 24 10z"/>
</svg>